<?xml version="1.0" encoding="UTF-8"?>
<svg width="169px" height="28px" viewBox="0 0 169 28" version="1.1" xmlns="http://www.w3.org/2000/svg" xmlns:xlink="http://www.w3.org/1999/xlink">
    <title>Barclays-Logo.wine</title>
    <g id="Page-1" stroke="none" stroke-width="1" fill="none" fill-rule="evenodd">
        <g id="Barclays-Logo.wine" fill="#00AEEF" fill-rule="nonzero">
            <path d="M168.317019,6.76202973 C167.221587,4.78027678 164.860215,3.27725269 162.295389,3.27725269 C160.039625,3.27725269 158.0555,4.19948744 158.0555,6.59075346 C158.0555,8.60432599 160.553247,9.97010764 163.153275,11.644408 C165.990849,13.4197437 168.93399,15.6034854 168.93399,19.395674 C168.93399,24.3472271 164.111223,27.3851358 158.535029,27.3851358 C156.242953,27.3851358 153.849746,26.9415889 151.147437,25.9172527 L151.590654,19.3264992 C152.891797,21.9570682 155.321316,24.0387494 158.9101,24.0387494 C161.681704,24.0387494 163.732907,22.7080677 163.732907,20.3848693 C163.732907,18.4042645 162.055625,17.1756843 160.005531,15.9471451 C155.694169,13.3527832 152.959985,11.2678216 152.959985,7.51298821 C152.959985,1.87743721 157.679361,0 162.570356,0 C165.40793,0 167.188603,0.512721681 169,0.512721681 L168.317019,6.76202973 M144.408733,12.6676781 C143.790611,13.6931215 143.007527,15.0907637 142.52578,16.1173142 C142.116656,18.0628191 141.910986,20.6593952 141.910986,23.5260277 C141.910986,24.7216402 142.116656,26.3256586 142.663304,26.8724141 L135.515436,26.8724141 C136.779158,25.6779088 137.29389,18.3383701 137.22677,16.0152127 C136.268863,12.7038852 134.966611,9.52766786 132.983595,5.66851871 C131.720981,3.24543311 130.248302,0.955161456 129.324488,0.512721681 C130.931324,0.377652486 132.983595,0.27448488 133.976746,0.27448488 C135.754132,0.27448488 136.234729,0.512721681 137.33016,2.90394669 C139.037141,6.76309585 140.303041,9.66269605 141.056427,11.8156843 C142.870043,8.98091235 144.134875,7.03536648 145.776954,4.37187084 C146.187187,3.72301384 146.529232,2.90394669 146.529232,2.11784726 C146.529232,1.50195797 146.425842,0.820133265 146.153093,0.512721681 L153.233842,0.512721681 C151.865621,0.820133265 145.707658,10.4839364 144.408733,12.6676781 M119.541389,6.69502819 L115.3015,15.8779703 L122.209604,15.8779703 L119.541389,6.69502819 M127.853986,27.110692 C125.594894,27.110692 125.425535,27.0436904 123.611879,20.8295233 L122.962991,18.5414659 C121.869736,19.0531215 119.917569,19.2924654 116.806096,19.2924654 L113.659462,19.2924654 L113.111746,20.452937 C112.325375,22.1964531 111.265104,24.2418452 111.265104,25.6789749 C111.265104,26.0204613 111.299198,26.3948334 111.436682,26.8735213 L92.7603677,26.8735213 C93.8216647,25.6790159 94.1637509,21.8209329 94.6762641,14.8195592 L94.7785449,13.1474731 C95.0524028,9.15214762 95.2602506,6.0790979 95.22398,3.92939006 C95.1898863,2.15409534 95.0183092,1.02655049 94.5398897,0.51493593 L101.758123,0.51493593 C100.730878,1.30099436 100.35363,5.53349052 99.8762786,12.5348232 L99.7387951,14.2069503 C99.567218,16.8024193 99.2262819,19.4648488 99.2262819,22.0602768 C99.2262819,23.253716 99.7047015,23.5270938 100.937617,23.5270938 C105.313922,23.5270938 106.410421,23.4249923 108.392328,22.0932445 C109.623066,19.8392209 111.027558,17.004408 112.393562,14.0686417 L114.243489,10.14245 C115.986699,6.45461814 117.695857,2.69757048 117.695857,1.98171194 C117.695857,1.46792414 117.559483,0.991409534 117.35603,0.512721681 L123.101583,0.512721681 C123.101583,0.512721681 125.426644,9.11811379 125.940267,10.96041 L127.067574,15.1269708 C129.016496,22.1272783 130.249411,25.5406663 131.891491,26.8724141 C130.521092,27.0436904 128.57217,27.110692 127.853986,27.110692 M81.3033135,27.3851768 C74.4964221,27.3851768 70.5623073,21.7857919 70.5623073,15.5035572 C70.5623073,6.76309585 75.3158188,0 84.3806518,0 C87.2193349,0 88.554572,0.512721681 90.8444301,0.512721681 L90.1614078,7.23961046 C88.8614145,4.88348539 86.7398062,3.27835982 83.9022323,3.27835982 C78.2589598,3.27835982 75.9669246,9.35745771 75.9669246,14.5813224 C75.9669246,20.248734 79.1487208,23.3547104 83.3886511,23.3547104 C85.6806863,23.3547104 87.6977955,22.7398872 91.0853035,20.3848693 C89.7170819,24.7567811 86.5352446,27.3851768 81.3033135,27.3851768 M57.7030201,3.72301384 C57.0529823,3.72301384 56.264393,3.72301384 55.6507081,3.7910815 C55.4450374,4.91751922 55.2734603,6.86413121 55.033696,10.0041415 L54.8962125,11.8497591 C55.2404347,11.9188929 55.6836926,11.9540338 56.0950341,11.9540338 C59.376934,11.9540338 61.6360258,9.97121476 61.6360258,6.96840595 C61.6360258,4.91751922 60.1996169,3.72301384 57.7030201,3.72301384 M67.2440956,28 C65.2951735,28 64.8156449,27.6914813 64.1667573,26.8032394 L56.7780564,16.559754 C56.1962058,15.7747617 55.7518799,15.1259047 54.8291343,15.1259047 L54.6575572,15.1259047 L54.5222508,17.1065095 C54.3496057,19.80408 54.2473249,21.9570682 54.2473249,23.5611276 C54.2814185,25.3364634 54.4870892,26.4277601 54.9665767,26.8724141 L47.8176402,26.8724141 C48.8427076,25.9502204 49.2177373,22.8771297 49.8006558,14.8184931 L49.9040457,13.146325 C50.1779036,9.18618145 50.3835744,6.11206561 50.3483717,3.96235777 C50.313169,2.08381343 50.1097164,0.922234751 49.5950262,0.512721681 L59.3428404,0.512721681 C62.5236097,0.512721681 66.9020505,1.06054331 66.9020505,6.21523321 C66.9020505,10.4477294 64.0622583,12.7708867 60.540594,13.8621835 C60.8826392,14.1707022 61.4974332,14.9557355 61.874681,15.4344234 L67.2440956,22.5367914 C70.5964009,26.9415889 70.8691498,27.1457919 72.0679714,27.7606561 C70.5623073,27.9308252 68.5452391,28 67.2440956,28 M33.9321764,6.69502819 L29.6538394,15.8779703 L36.5971053,15.8779703 L33.9322175,6.69502819 M42.2414869,27.110692 C39.9857223,27.110692 39.8141452,27.0436904 38.0015976,20.8295233 L37.3516009,18.5414659 C36.2550601,19.0531215 34.3061792,19.2924654 31.1935971,19.2924654 L28.0469625,19.2924654 L27.5003557,20.452937 C26.9526399,21.6836904 25.6185118,24.2110917 25.6526054,25.6789749 C25.6526054,26.0204613 25.686699,26.3619067 25.8241825,26.8735213 L19.4968197,26.8735213 C21.3093673,25.0641517 23.6014436,20.8646643 26.7821718,14.0697078 L28.629881,10.1435982 C30.3049452,6.5929267 32.0844672,2.56360841 32.0844672,1.98281907 C32.0844672,1.46903127 31.9492018,0.992516658 31.742422,0.513828806 L37.4901935,0.513828806 C37.4901935,0.513828806 38.9925714,6.21634034 40.3277675,10.9615172 L41.4561837,15.1280779 C43.4062149,22.1283854 44.636912,25.5417734 46.2789915,26.8735213 C44.8084891,27.0436904 42.9607798,27.110692 42.2414869,27.110692 M9.67855904,3.68898001 C9.16493679,3.68898001 8.48195557,3.68898001 7.83195889,3.75815479 C7.55810096,5.60151717 7.38652385,7.37681189 7.25121741,9.32235777 C7.25121741,9.32235777 7.14782752,10.9944439 7.14782752,10.9263762 L7.83195889,10.9263762 C11.1842231,10.9263762 14.2637796,9.76590466 14.2637796,6.69502819 C14.2637796,4.91751922 12.7922091,3.68898001 9.67855904,3.68898001 M8.82510978,14.1366684 L6.94437494,14.1366684 L6.67051701,18.0287852 C6.53414258,19.7371194 6.4648463,21.1699026 6.43075269,22.8771707 C6.43075269,23.1175807 7.1830302,23.6291953 8.96037514,23.6291953 C12.6547256,23.6291953 15.0842854,21.7857919 15.0842854,18.7457099 C15.0842854,15.3652486 12.3126805,14.1366684 8.82510978,14.1366684 M9.23534214,26.8724141 L0,26.8724141 C1.16361893,25.8469708 1.47157047,21.8527934 1.98412473,14.8184931 L2.08640555,13.1803588 C2.36133148,9.18511533 2.5659342,6.11206561 2.53184059,3.96235777 C2.49774698,2.11784726 2.29207627,0.922234751 1.77845402,0.512721681 L12.1081188,0.512721681 C14.5706631,0.512721681 19.4968197,0.649964121 19.4968197,5.77062019 C19.4968197,9.18507432 16.3150235,11.3018555 13.4081122,12.0550282 C17.5127361,12.4645413 20.5911834,14.44408 20.5911834,18.6776422 C20.5900744,23.2526089 16.2808888,26.8724141 9.23534214,26.8724141" id="Shape"></path>
        </g>
    </g>
</svg>