<?xml version="1.0" encoding="UTF-8"?>
<svg width="152px" height="78px" viewBox="0 0 152 78" version="1.1" xmlns="http://www.w3.org/2000/svg" xmlns:xlink="http://www.w3.org/1999/xlink">
    <title>cdnlogo.com_halifax-1</title>
    <g id="Page-1" stroke="none" stroke-width="1" fill="none" fill-rule="evenodd">
        <g id="cdnlogo.com_halifax-1" fill="#2360A5" fill-rule="nonzero">
            <path d="M8.39516197,41.9306358 L16.9188869,41.9306358 L16.9188869,50.854583 L25.3108348,50.854583 L25.3108348,27.145417 L16.9188869,27.145417 L16.9188869,35.6861272 L8.39516197,35.6861272 L8.39516197,27.145417 L0,27.145417 L0,50.854583 L8.39516197,50.854583 L8.39516197,41.9306358 Z M36.2483295,47.2830718 L43.8817559,47.2830718 L45.5337901,50.8513625 L54.0543009,50.8513625 L44.1324537,27.145417 L36.8815022,27.145417 L25.9440074,50.8513625 L34.5930813,50.8513625 L36.2483295,47.2830718 L36.2483295,47.2830718 Z M40.3173475,37.5958712 L41.9725958,42.8227085 L38.2860526,42.8227085 L40.3173475,37.5958712 Z M71.6127886,45.3701073 L63.4715385,45.3701073 L63.4715385,27.145417 L55.3270743,27.145417 L55.3270743,50.854583 L71.6127886,50.854583 L71.6127886,45.3701073 Z M72.882348,27.145417 L81.2742959,27.145417 L81.2742959,50.8513625 L72.882348,50.8513625 L72.882348,27.145417 Z M100.992641,32.1178365 L100.992641,27.145417 L84.4594435,27.145417 L84.4594435,50.854583 L92.7260425,50.854583 L92.7260425,41.5473988 L100.992641,41.5473988 L100.992641,36.4493807 L92.7260425,36.4493807 L92.7260425,32.1178365 L100.992641,32.1178365 Z M152,27.145417 L143.225577,27.145417 L138.009135,33.1355078 L133.049818,27.145417 L123.25332,27.145417 L132.541994,39 L125.127125,48.3361685 L116.259494,27.145417 L108.87998,27.145417 L98.071048,50.8513625 L106.716908,50.8513625 L108.372156,47.2830718 L116.005582,47.2830718 L117.532268,50.8513625 L132.410217,50.8513625 L137.118836,44.9868704 L141.695678,50.8513625 L151.874651,50.8513625 L142.585976,38.9967795 L152,27.145417 L152,27.145417 Z M110.406665,42.8227085 L112.441174,37.5958712 L113.967859,42.8227085 L110.406665,42.8227085 L110.406665,42.8227085 Z M90.4344075,76.4702725 L92.3435676,78 L151.488962,78 L149.454453,76.4702725 L90.4344075,76.4702725 Z M0.890298571,78 L60.0356931,78 L61.8162903,76.4702725 L2.79945868,76.4702725 L0.890298571,78 Z M145.764696,73.2819983 L86.7478643,73.2819983 L88.5252474,74.8117258 L147.673856,74.8117258 L145.764696,73.2819983 Z M4.70540472,74.8117258 L63.7254504,74.8117258 L65.6313964,73.2819983 L6.48600186,73.2819983 L4.70540472,74.8117258 Z M142.074939,70.0969447 L83.0581071,70.0969447 L84.8387042,71.6266722 L143.980885,71.6266722 L142.074939,70.0969447 Z M8.39516197,71.6266722 L67.5405565,71.6266722 L69.3211537,70.0969447 L10.3043221,70.0969447 L8.39516197,71.6266722 Z M138.388396,66.911891 L79.2430009,66.911891 L81.152161,68.4416185 L140.297556,68.4416185 L138.388396,66.911891 Z M12.2102681,68.4416185 L71.2303138,68.4416185 L73.1362598,66.911891 L13.9908653,66.911891 L12.2102681,68.4416185 Z M134.576503,63.7268373 L75.5532437,63.7268373 L77.3370549,65.2565648 L136.482449,65.2565648 L134.576503,63.7268373 Z M15.9000254,65.2565648 L73.0109109,65.2565648 L71.1049649,63.7268373 L17.8091855,63.7268373 L15.9000254,65.2565648 Z M130.883532,60.5385632 L71.8634864,60.5385632 L73.6472976,62.0682907 L132.664129,62.0682907 L130.883532,60.5385632 Z M19.7151315,62.0682907 L69.3211537,62.0682907 L67.4152076,60.5385632 L21.4957287,60.5385632 L19.7151315,62.0682907 Z M127.068426,57.350289 L68.0483803,57.350289 L69.8321915,58.883237 L128.977586,58.883237 L127.068426,57.350289 Z M23.4048888,58.883237 L65.5060475,58.883237 L63.6001015,57.350289 L25.1822718,57.350289 L23.4048888,58.883237 Z M64.358623,54.1652353 L66.1424342,55.6949628 L125.159266,55.6949628 L123.378669,54.1652353 L64.358623,54.1652353 Z M27.091432,55.6949628 L61.8162903,55.6949628 L59.9103442,54.1652353 L29.0005921,54.1652353 L27.091432,55.6949628 Z M85.8575658,22.3018167 L26.8375201,22.3018167 L28.6181172,23.8347647 L87.7635118,23.8347647 L85.8575658,22.3018167 Z M125.541741,22.3018167 L90.1837097,22.3018167 L91.9643069,23.8347647 L123.632581,23.8347647 L125.541741,22.3018167 Z M23.1477628,19.1199835 L24.92836,20.649711 L84.0769686,20.649711 L82.1678085,19.1199835 L23.1477628,19.1199835 Z M129.231498,19.1199835 L86.4939525,19.1199835 L88.2713355,20.649711 L127.447687,20.649711 L129.231498,19.1199835 Z M21.2386027,17.4614368 L80.2586484,17.4614368 L78.4780513,15.9317093 L19.4612197,15.9317093 L21.2386027,17.4614368 Z M133.046604,15.9317093 L82.6756322,15.9317093 L84.5847924,17.4614368 L131.13423,17.4614368 L133.046604,15.9317093 Z M17.5520595,14.2763832 L76.5721052,14.2763832 L74.6629451,12.7466557 L15.6461135,12.7466557 L17.5520595,14.2763832 Z M134.827201,14.2763832 L136.733147,12.7466557 L78.9890891,12.7466557 L80.7664721,14.2763832 L134.827201,14.2763832 Z M13.7369534,11.088109 L72.882348,11.088109 L70.9764019,9.5583815 L11.9563563,9.5583815 L13.7369534,11.088109 Z M140.551467,9.5583815 L81.4060729,9.5583815 L79.4969128,11.088109 L138.642307,11.088109 L140.551467,9.5583815 Z M10.0471961,7.90305533 L69.0672418,7.90305533 L67.2866447,6.37332783 L8.14125011,6.37332783 L10.0471961,7.90305533 Z M144.238011,6.37332783 L85.0926161,6.37332783 L83.3120189,7.90305533 L142.332065,7.90305533 L144.238011,6.37332783 Z M6.23208999,4.71478117 L65.3774846,4.71478117 L63.4715385,3.18827415 L4.32614396,3.18827415 L6.23208999,4.71478117 Z M147.927768,3.18827415 L88.9109363,3.18827415 L87.0017762,4.71478117 L146.018608,4.71478117 L147.927768,3.18827415 Z M61.5623784,1.53294798 L59.7817813,2.10942375e-14 L0.7617356,2.10942375e-14 L2.54554682,1.53294798 L61.5623784,1.53294798 Z M151.742874,2.10942375e-14 L92.5974795,2.10942375e-14 L90.6915335,1.53294798 L149.836928,1.53294798 L151.742874,2.10942375e-14 Z" id="Shape"></path>
        </g>
    </g>
</svg>