<?xml version="1.0" encoding="UTF-8"?>
<svg width="127px" height="34px" viewBox="0 0 127 34" version="1.1" xmlns="http://www.w3.org/2000/svg" xmlns:xlink="http://www.w3.org/1999/xlink">
    <title>Group</title>
    <g id="Page-1" stroke="none" stroke-width="1" fill="none" fill-rule="evenodd">
        <g id="Group" fill-rule="nonzero">
            <rect id="Rectangle" fill="#FFFFFF" x="17" y="0" width="34" height="34"></rect>
            <polygon id="Path" fill="#DB0011" points="67.926087 17 51 0 51 34"></polygon>
            <polygon id="Path" fill="#DB0011" points="34 17 51 0 17 0"></polygon>
            <polygon id="Path" fill="#DB0011" points="0 17 17 34 17 0"></polygon>
            <polygon id="Path" fill="#DB0011" points="34 17 17 34 51 34"></polygon>
            <polygon id="Path" fill="#000000" points="82.9304348 18.0347826 76.7217391 18.0347826 76.7217391 24.0956522 73.6173913 24.0956522 73.6173913 9.90434783 76.7217391 9.90434783 76.7217391 15.7434783 82.9304348 15.7434783 82.9304348 9.90434783 85.9608696 9.90434783 85.9608696 24.0956522 82.9304348 24.0956522"></polygon>
            <path d="M93.2782609,24.3173913 C90.2478261,24.3173913 87.6608696,23.0608696 87.6608696,19.7347826 L90.6913043,19.7347826 C90.6913043,21.2869565 91.6521739,22.1 93.2782609,22.1 C94.5347826,22.1 95.9391304,21.4347826 95.9391304,20.1043478 C95.9391304,18.9956522 94.9782609,18.7 93.3521739,18.1826087 L92.3173913,17.8869565 C90.1,17.2217391 87.8086957,16.3347826 87.8086957,13.7478261 C87.8086957,10.5695652 90.7652174,9.53478261 93.426087,9.53478261 C96.0869565,9.53478261 98.6,10.4956522 98.6,13.673913 L95.5695652,13.673913 C95.4956522,12.3434783 94.6826087,11.6782609 93.2782609,11.6782609 C92.0956522,11.6782609 90.9869565,12.2695652 90.9869565,13.6 C90.9869565,14.6347826 91.9478261,14.9304348 93.9434783,15.5956522 L95.126087,15.9652174 C97.6391304,16.7043478 99.1173913,17.5913043 99.1173913,19.9565217 C99.2652174,23.1347826 96.1608696,24.3173913 93.2782609,24.3173913" id="Path" fill="#000000"></path>
            <path d="M101.071895,10.0271493 L105.888889,10.0271493 C106.823529,9.95475113 107.686275,10.0271493 108.620915,10.2443439 C110.27451,10.6063348 111.568627,11.7647059 111.568627,13.5746606 C111.568627,15.3846154 110.418301,16.3257919 108.764706,16.760181 C110.633987,17.1221719 112,18.0633484 112,20.0904977 C112,23.2760181 108.908497,24 106.392157,24 L101,24 L101,10.0271493 L101.071895,10.0271493 Z M106.076923,16 C107.461538,16 109,15.6923077 109,14 C109,12.5384615 107.615385,12 106.307692,12 L104,12 L104,16 L106.076923,16 Z M106.214286,22 C107.571429,22 109,21.6491228 109,20.0350877 C109,18.4210526 107.785714,18 106.428571,18 L104,18 L104,21.9298246 L106.214286,21.9298246 L106.214286,22 Z" id="Shape" fill="#000000"></path>
            <path d="M120.330435,24.3173913 C115.747826,24.3173913 113.678261,21.3608696 113.678261,17.073913 C113.678261,12.7869565 115.969565,9.60869565 120.478261,9.60869565 C123.36087,9.60869565 126.095652,10.8652174 126.095652,14.1173913 L122.917391,14.1173913 C122.843478,12.8608696 121.734783,11.826087 120.478261,11.9 C120.478261,11.9 120.478261,11.9 120.478261,11.9 C117.669565,11.9 116.856522,14.8565217 116.856522,17.1478261 C116.856522,19.4391304 117.743478,22.026087 120.404348,22.026087 C121.734783,22.1 122.917391,21.1391304 123.065217,19.8086957 L126.317391,19.8086957 C125.873913,23.0608696 123.286957,24.3173913 120.330435,24.3173913" id="Path" fill="#000000"></path>
        </g>
    </g>
</svg>