<?xml version="1.0" encoding="UTF-8"?>
<svg width="165px" height="38px" viewBox="0 0 165 38" version="1.1" xmlns="http://www.w3.org/2000/svg" xmlns:xlink="http://www.w3.org/1999/xlink">
    <title>cdnlogo.com_lloyds-bank</title>
    <g id="Page-1" stroke="none" stroke-width="1" fill="none" fill-rule="evenodd">
        <g id="cdnlogo.com_lloyds-bank" fill-rule="nonzero">
            <path d="M34.9766537,26.9340659 C36.4241245,24.956044 37.4513619,23.3736264 38.2918288,21 L41,21 C39.7392996,23.989011 38.2918288,26.3626374 36.1906615,29 L36.1906615,33 L33.8093385,33 L33.8093385,29.043956 C31.7081712,26.3186813 30.2607004,24.032967 29,21.043956 L31.7081712,21.043956 C32.5019455,23.4175824 33.5291829,25.043956 34.9766537,26.9340659" id="XMLID_25_" fill="#006C32"></path>
            <path d="M59.5043251,25.9819495 C58.4121971,25.6353791 57.7569203,25.4620939 57.3637542,25.1588448 C56.926903,24.898917 56.8395328,24.5956679 56.8395328,24.2924188 C56.8395328,23.8158845 57.1016435,23.4693141 57.5384947,23.2527076 C57.9753459,23.0361011 58.5432525,22.9927798 59.0237888,22.9927798 C59.8101209,22.9927798 60.6838233,23.166065 61.6012108,23.4693141 L62.3438579,21.7364621 C61.4264704,21.2599278 60.203287,21 59.0237888,21 C57.8006054,21 56.7521625,21.2599278 56.0095155,21.8231047 C55.092128,22.4296029 54.6115917,23.2960289 54.6115917,24.3357401 C54.6115917,26.3718412 56.3589965,27.1516245 58.0627161,27.7148014 C58.7616781,27.9747292 59.5043251,28.1480144 60.0285465,28.4079422 C60.5090829,28.66787 60.8148787,29.0577617 60.8148787,29.5776173 C60.8148787,30.1407942 60.4653977,30.5306859 60.1159168,30.7039711 C59.6790656,30.9638989 59.0237888,31.0505415 58.3248269,31.0505415 C56.7521625,31.0505415 55.6163494,30.4440433 54.7863322,29.8808664 L54,31.6570397 C55.0484429,32.4368231 56.7084774,33 58.4121971,33 C61.0333043,33 62.9991347,31.6137184 62.9991347,29.4043321 C63.0428198,27.4981949 61.4264704,26.5451264 59.5043251,25.9819495" id="XMLID_24_" fill="#006C32"></path>
            <path d="M46.8325991,30.8901099 L45.2026432,30.8901099 L45.2026432,23.0659341 L46.6123348,23.0659341 C49.123348,23.0659341 50.7092511,24.4285714 50.7092511,26.8901099 C50.753304,29.2637363 49.2555066,30.8901099 46.8325991,30.8901099 M46.6123348,21 L43,21 L43,33 L46.8325991,33 C50.3568282,33 53,30.4945055 53,26.8901099 C53,23.3736264 50.4889868,21 46.6123348,21" id="Shape" fill="#006C32"></path>
            <path d="M74.0990099,31.2352941 L72.1386139,31.2352941 L72.1386139,27.75 L74.1435644,27.75 C75.8811881,27.75 76.7722772,28.2352941 76.7722772,29.4264706 C76.8168317,31.0147059 75.2574257,31.2352941 74.0990099,31.2352941 M72.1386139,22.8088235 L73.8762376,22.8088235 C75.480198,22.8088235 76.2376238,23.2058824 76.2376238,24.2205882 C76.2376238,25.2352941 75.480198,25.8529412 74.0544554,25.8529412 L72.1386139,25.8529412 L72.1386139,22.8088235 Z M76.3267327,26.6911765 L76.3267327,26.6911765 C77.6188119,26.25 78.4207921,25.3676471 78.4207921,23.9558824 C78.4207921,21.8382353 76.549505,21 74.7227723,21 L70,21 L70,33 L74.4108911,33 C76.6831683,33 79,32.0735294 79,29.5588235 C78.9554455,27.9264706 77.9306931,26.9117647 76.3267327,26.6911765" id="Shape" fill="#006C32"></path>
            <polygon id="XMLID_18_" fill="#006C32" points="102 21 99.8761062 21 99.8761062 29.6593407 99.8318584 29.6593407 94.7433628 21 92 21 92 33 94.079646 33 94.079646 24.032967 94.1238938 24.032967 99.300885 33 102 33"></polygon>
            <polygon id="XMLID_17_" fill="#006C32" points="109.64135 26.7582418 115.489451 21 112.518987 21 107.274262 26.3626374 107.181435 26.3626374 107.181435 21 105 21 105 33 107.181435 33 107.181435 27.1978022 107.274262 27.1978022 112.890295 33 116 33"></polygon>
            <polygon id="XMLID_16_" fill="#006C32" points="9 33 16.2426036 33 17 30.8461538 11.3195266 30.8461538 11.3195266 21 9 21"></polygon>
            <polygon id="XMLID_15_" fill="#006C32" points="0 33 7.2 33 8 30.8461538 2.35294118 30.8461538 2.35294118 21 0 21"></polygon>
            <path d="M23.9783394,31.0143885 C21.5956679,31.0143885 20.2093863,29.2446043 20.2093863,27.0431655 C20.2093863,24.7985612 21.5956679,23.0719424 23.9783394,23.0719424 C26.4043321,23.0719424 27.7906137,24.8848921 27.7906137,27.0863309 C27.7472924,29.2446043 26.3610108,31.0143885 23.9783394,31.0143885 M24.0216606,21 C20.4259928,21 18,23.676259 18,27 C18,30.323741 20.2960289,33 23.9783394,33 C27.5740072,33 30,30.323741 30,27 C29.9566787,23.676259 27.5740072,21 24.0216606,21" id="Shape" fill="#006C32"></path>
            <path d="M84.9783394,30.3970588 C85.8447653,30.3970588 86.7111913,30.3088235 87.4476534,30.1323529 L88.5306859,33 L91,33 L85.8880866,21 L84.1119134,21 L79,33 L81.4693141,33 L82.5523466,30.1323529 C83.2454874,30.3088235 84.1119134,30.3970588 84.9783394,30.3970588 M84.9783394,28.5441176 C84.3285199,28.5441176 83.765343,28.5 83.1588448,28.3676471 L84.9783394,23.6029412 L86.7978339,28.3676471 C86.1913357,28.5 85.6281588,28.5441176 84.9783394,28.5441176" id="Shape" fill="#006C32"></path>
            <path d="M163.305978,19.8454333 C164.152989,20.4683841 165,20.9133489 165,21.8477752 C165,22.1147541 164.643364,22.4262295 163.840932,22.4262295 C163.216819,22.4262295 162.592705,22.2482436 162.236069,21.8032787 C161.968592,21.4918033 162.325228,21.0023419 162.14691,20.6908665 C161.968592,20.4238876 161.611955,20.557377 161.344478,20.4238876 C161.077001,20.2459016 161.032421,20.1569087 160.809524,19.7119438 C160.586626,19.2224824 159.828774,18.3770492 158.937183,17.4871194 C158.179331,16.7306792 157.3769,16.3302108 157.020263,16.3747073 C156.752786,16.4192037 156.708207,16.4192037 156.440729,16.4192037 C155.772036,16.4192037 155.237082,17.0421546 154.300912,17.442623 C153.632219,17.7096019 153.275583,17.8875878 152.874367,17.9320843 L152.740628,18.1100703 L153.587639,18.0655738 C154.390071,18.0655738 155.4154,17.9765808 156.173252,17.9765808 C156.975684,17.9765808 157.3769,18.6885246 157.688956,19.4449649 C158.31307,20.9578454 159.204661,23.1381733 160.319149,25.0070258 C160.854103,25.852459 161.299899,26.4309133 161.299899,27.498829 C161.299899,27.8103044 161.255319,28.2997658 160.809524,28.2997658 C160.18541,28.2997658 158.625127,27.6323185 158.625127,26.9648712 C158.625127,26.4309133 159.070922,26.2084309 159.070922,25.6744731 C159.070922,25.3629977 158.580547,25.4074941 158.446809,25.0960187 C158.045593,23.4941452 157.599797,21.8477752 156.663627,20.8688525 C156.173252,20.3793911 156.128673,20.1569087 155.638298,20.1569087 C155.370821,20.1569087 155.147923,20.2459016 154.925025,20.2903981 C153.676798,20.7798595 151.982776,22.2037471 149.842958,22.8266979 C149.040527,23.0936768 148.906788,22.6042155 148.059777,22.7377049 L148.148936,22.7377049 C147.480243,22.8711944 146.945289,23.2716628 146.009119,23.5386417 C144.760892,23.8946136 142.531915,24.0725995 140.748734,23.8056206 C139.500507,23.6276347 137.851064,23.3606557 137.182371,23.4051522 C136.647416,24.9180328 135.532928,26.9203747 133.838906,27.7213115 C132.947315,28.1217799 132.679838,28.6557377 132.947315,29.6791569 C133.259372,30.9250585 134.37386,31.8594848 134.953394,32.9274005 C135.488349,33.8173302 136.379939,35.2857143 137.27153,35.7751756 C138.163121,36.264637 138.742655,36.9320843 138.742655,37.5550351 C138.742655,37.8220141 138.653495,38 138.341439,38 L136.513678,38 C136.246201,38 136.067882,37.8220141 136.023303,37.7330211 C135.755826,37.2435597 135.934144,36.8430913 135.577508,36.3981265 C135.31003,36.1311475 135.131712,36.175644 134.819656,35.9086651 C134.284701,35.3747073 134.685917,35.0632319 134.284701,34.3957845 C133.125633,32.5714286 132.635258,32.1264637 131.654509,30.7915691 C131.119554,30.1241218 130.406282,29.7236534 130.406282,28.8337237 C130.406282,27.7213115 131.52077,27.5433255 131.47619,26.4309133 C130.762918,26.9648712 129.915907,27.3653396 128.6231,27.5433255 C128.444782,27.587822 127.998987,27.8992974 127.820669,28.1217799 C127.374873,28.5667447 127.196555,29.0117096 127.151976,29.6791569 C127.018237,31.1920375 126.70618,32.704918 126.884498,34.2177986 C127.151976,35.1967213 127.330294,35.5081967 128.132725,36.0421546 C128.6231,36.35363 129.202634,36.8430913 129.291793,37.5550351 C129.291793,37.7330211 129.202634,38 128.979737,38 L126.973658,38 C126.795339,38 126.617021,37.8665105 126.527862,37.7330211 C126.304965,37.3325527 126.438703,37.0655738 126.349544,36.6206089 C126.171226,35.7306792 125.101317,35.7751756 125.101317,34.7962529 C125.101317,34.529274 125.279635,34.1288056 125.279635,33.5503513 C125.368794,32.3044496 125.725431,30.2131148 125.368794,27.7213115 C125.190476,26.2974239 126.70618,26.2084309 127.508612,24.9625293 C127.998987,24.2505855 127.820669,24.5175644 128.132725,24.028103 C128.400203,23.4941452 128.355623,23.0936768 128.311044,22.7822014 C128.311044,22.3372365 127.865248,21.4918033 128.177305,19.6674473 C128.266464,18.8665105 128.66768,18.0655738 129.247214,17.35363 C129.247214,17.3091335 129.247214,17.2201405 129.068896,17.2201405 C128.266464,17.3091335 128.266464,17.0866511 127.776089,17.0866511 C127.285714,17.0866511 126.884498,17.5316159 126.795339,17.7540984 C126.527862,17.6651054 126.438703,17.35363 126.438703,17.2201405 C126.438703,16.9531616 126.527862,16.6861827 126.75076,16.4192037 C126.839919,16.3302108 126.75076,16.2412178 126.617021,16.2412178 C125.992908,16.2412178 125.413374,16.9976581 125.279635,17.4871194 C124.922999,17.3981265 124.878419,16.9531616 124.744681,16.9531616 C124.566363,16.9531616 124.477204,17.2201405 124.477204,17.442623 C124.477204,19.2224824 127.374873,19.6229508 127.374873,21.9367681 C127.374873,24.6510539 124.120567,24.0725995 124.120567,25.0515222 C124.120567,25.2295082 124.254306,25.4074941 124.521783,25.5409836 C124.432624,25.8079625 124.120567,25.8969555 123.85309,25.8969555 C123.139818,25.8969555 122.604863,25.3629977 122.604863,24.6510539 C122.604863,23.1826698 124.610942,23.1381733 124.610942,22.0257611 C124.610942,21.4918033 124.298886,21.3583138 123.942249,21.0913349 C122.069909,19.7564403 121,18.4215457 121,16.2412178 C121,13.882904 122.649443,12.058548 124.78926,12.058548 C127.909828,12.058548 127.998987,15.6627635 130.807497,15.9742389 C131.877406,15.2622951 133.125633,14.8173302 134.329281,14.8173302 C136.157042,14.8173302 136.959473,15.3067916 138.920973,15.3067916 C139.723404,15.3067916 141.016211,15.0843091 142.576494,14.0163934 C143.156028,13.6159251 143.423506,13.5269321 143.95846,13.0819672 C145.206687,12.0140515 146.321175,9.96721311 146.321175,8.49882904 L146.321175,8.58782201 C146.321175,8.09836066 146.232016,7.83138173 146.009119,7.83138173 C145.340426,7.83138173 144.760892,8.45433255 144.092199,9.07728337 C143.646403,9.52224824 144.315096,9.74473068 143.378926,10.234192 C143.066869,10.412178 142.665653,10.1007026 142.309017,10.1007026 C141.551165,10.1007026 141.239108,9.21077283 141.239108,8.45433255 C141.239108,8.05386417 141.506586,7.96487119 141.729483,7.6088993 C142.130699,6.85245902 142.08612,6.54098361 142.442756,5.82903981 C142.665653,5.33957845 143.066869,4.98360656 143.02229,4.62763466 C143.02229,4.4941452 142.933131,4.40515222 142.933131,4.27166276 C142.933131,3.51522248 143.95846,3.02576112 143.95846,2.26932084 C143.95846,1.82435597 143.468085,1.64637002 143.378926,1.33489461 C143.289767,1.0234192 143.334347,0.889929742 143.334347,0.889929742 C143.378926,0.800936768 143.423506,0.800936768 143.468085,0.800936768 C143.869301,0.800936768 144.00304,1.24590164 144.359676,1.46838407 C144.404255,0.978922717 144.225937,0.845433255 144.225937,0.489461358 C144.225937,0.31147541 144.181358,0 144.404255,0 C144.671733,0 144.627153,0.31147541 144.850051,0.489461358 C145.117528,0.711943794 145.385005,0.667447307 145.697062,0.889929742 C146.098278,1.15690867 146.321175,1.55737705 146.454914,1.55737705 C146.85613,1.64637002 146.945289,1.11241218 146.722391,0.889929742 C147.168186,0.845433255 147.613982,1.20140515 148.193516,1.20140515 C149.085106,1.20140515 149.441743,1.46838407 149.620061,1.60187354 C150.199595,2.09133489 150.288754,2.49180328 150.957447,2.49180328 C151.269504,2.49180328 151.447822,2.22482436 151.536981,2.09133489 C151.982776,2.4028103 152.027356,3.24824356 151.536981,3.96018735 C151.715299,4.53864169 152.56231,4.62763466 152.963526,4.89461358 C153.364742,5.16159251 153.275583,5.33957845 153.587639,5.47306792 C153.810537,5.60655738 154.033435,5.56206089 154.167173,5.47306792 C154.345491,6.27400468 153.676798,6.94145199 152.874367,7.07494145 C152.918946,8.09836066 153.944276,8.67681499 154.43465,8.94379391 C154.167173,9.56674473 153.632219,9.74473068 153.186424,9.83372365 C153.320162,10.4566745 153.988855,11.3466042 153.676798,12.147541 C153.409321,12.0140515 152.918946,12.147541 152.918946,12.5925059 C152.918946,13.0819672 153.587639,13.3489461 152.874367,13.704918 C152.60689,13.882904 152.51773,14.3278689 153.052685,14.7728337 C153.765957,14.5948478 154.47923,14.5948478 155.281662,14.5948478 C155.772036,14.5948478 156.440729,14.4613583 156.886525,14.4613583 C157.733536,14.4613583 158.223911,14.7728337 158.848024,15.4847775 C160.319149,16.8641686 161.701114,18.6440281 163.305978,19.8454333" id="XMLID_10_" fill="#231F20"></path>
            <path d="M122.201282,15 C122.483077,15 123.046667,13.2173913 124.173847,13.2173913 C124.495898,13.2173913 124.576411,13.3478261 124.576411,13.4782609 C124.576411,13.7391304 124.173847,13.9565217 124.173847,14.2608696 C124.173847,14.3478261 124.214103,14.3913043 124.294616,14.3913043 C124.536155,14.3913043 124.777693,13.7391304 125.904873,13.7391304 C126.186668,13.7391304 126.468463,13.7826087 126.710002,13.826087 C126.830771,13.8695652 127.112566,14 126.95154,13.6086957 C126.710002,12.7826087 125.82436,12 124.616668,12 C123.408975,12 122.120769,13.173913 122,14.5652174 C122.080513,14.826087 122.080513,15 122.201282,15" id="XMLID_9_" fill="#6D6E70"></path>
            <path d="M145.548641,3.62665972 C145.16486,3.48531741 145.068915,3.29686099 145.260806,2.77860584 C145.356751,2.26035069 145.356751,2.07189427 145.16486,2.02478016 C144.97297,1.93055195 144.685134,2.11900837 144.445271,2.3545789 C144.205408,2.63726352 143.821627,3.06129047 143.725682,3.3910892 C143.629737,3.81511614 144.109463,3.72088793 143.773654,4.4275995 C143.15001,5.55833802 143.006092,5.79390854 142.670284,6.54773421 C142.382448,7.3957881 142.190558,7.49001631 142.04664,7.77270094 C141.85475,8.00827146 142.286503,8.05538557 142.766229,7.86692915 C143.293928,7.67847273 143.293928,8.29095609 143.102038,8.71498303 C142.95812,8.99766766 143.054065,9.13900997 143.485819,8.80921124 C143.8696,8.52652661 143.293928,8.29095609 143.389873,7.30155989 C143.533791,6.45350601 143.677709,5.98236496 144.253381,5.13431107 C144.733107,4.4275995 145.116888,3.86223025 145.88445,4.14491487 C146.124313,4.33337129 145.980395,3.81511614 145.548641,3.62665972" id="XMLID_8_" fill="#6D6E70"></path>
            <path d="M160.8,27 C160.95,27 161,26.7777778 161,26.5555556 C161,26.0555556 160.75,25.3333333 160.4,25 C160.3,25.7222222 160,26.2222222 160,26.5555556 C160,26.7777778 160.6,27 160.8,27" id="XMLID_7_" fill="#6D6E70"></path>
            <path d="M164.428571,22 C164.666667,22 165,21.8666667 165,21.6 C165,21.1333333 164.47619,20.2666667 164,20 C164.333333,20.8666667 164,22 164.428571,22" id="XMLID_6_" fill="#6D6E70"></path>
            <path d="M148.150057,14.4107464 C151.763009,15.8579285 151.508576,18.571395 151.813895,17.8930284 C151.915669,17.6216817 152.424535,16.2649485 151.152369,14.9986641 C150.185523,13.958502 149.77843,14.2298486 150.185523,13.3705843 C151.763009,9.97875119 152.729855,4.91361381 148.048284,3.14986061 C147.488531,2.96896285 147.081438,2.96896285 147.081438,3.05941173 C147.081438,3.14986061 147.590304,3.28553394 148.200944,3.64732946 C151.355916,5.50153154 150.338183,10.5214445 147.488531,12.9183399 C146.572572,13.7323798 147.030551,13.9132776 148.150057,14.4107464" id="XMLID_5_" fill="#6D6E70"></path>
            <path d="M137.865066,37 C138.105362,37 137.961184,36.7307692 137.913125,36.5769231 C137.720888,36.3076923 137.336415,36.1153846 137,36 C137.096118,36.2692308 137.096118,37 137.480592,37 L137.865066,37" id="XMLID_4_" fill="#6D6E70"></path>
            <path d="M128.88704,37 C129.09824,37 128.97152,36.7307692 128.8448,36.5769231 C128.67584,36.3076923 128.29568,36.1153846 128,36 C128.08448,36.2692308 128.12672,37 128.46464,37 L128.88704,37" id="XMLID_3_" fill="#6D6E70"></path>
            <path d="M139.632863,18.5652174 C141.466345,18.3913043 141.748419,18 142.077506,16.7391304 C142.218543,16.1304348 142.688666,15.5217391 143.111777,15.1304348 C143.393851,14.8695652 143.628913,14.6521739 143.910987,14.2608696 C144.005012,14.0869565 144.052024,14 143.910987,14 C143.722938,14.1304348 143.064765,14.5217391 142.782691,14.6956522 C141.466345,15.5217391 139.491826,15.9130435 138.739629,15.9130435 C137.047184,15.9130435 135.636813,15.4347826 134.085406,15.4347826 C129.525208,15.4347826 127.785751,18.7391304 128.020813,20.6956522 C128.067825,21 128.114837,21 128.208862,21 C128.490936,21 128.820022,19.8695652 129.948319,18.8695652 C131.640764,17.3913043 133.474245,16.5652174 136.059925,16.5652174 C137.940419,16.5652174 138.739629,17.1304348 138.739629,17.3478261 C138.739629,17.7826087 137.940419,17.826087 138.034443,18.2173913 C137.987431,18.3478261 138.410542,18.6956522 139.632863,18.5652174" id="XMLID_2_" fill="#6D6E70"></path>
        </g>
    </g>
</svg>