<?xml version="1.0" encoding="UTF-8"?>
<svg width="168px" height="67px" viewBox="0 0 168 67" version="1.1" xmlns="http://www.w3.org/2000/svg" xmlns:xlink="http://www.w3.org/1999/xlink">
    <title>nationwide-building-society-logo-vector</title>
    <g id="Page-1" stroke="none" stroke-width="1" fill="none" fill-rule="evenodd">
        <g id="nationwide-building-society-logo-vector" fill-rule="nonzero">
            <path d="M162.176,0 L5.796,0 C2.604,0 0,2.62307692 0,5.83846154 L0,33 L168,33 L168,5.83846154 C168,2.65128205 165.368,0 162.176,0" id="Path" fill="#00428D"></path>
            <path d="M0.028,38.1615385 C0.028,41.3769231 2.632,44 5.824,44 L162.204,44 C165.396,44 168,41.3769231 168,38.1615385 L168,33 L0,33 L0,38.1615385 L0.028,38.1615385 Z" id="Path" fill="#E50012"></path>
            <path d="M154.604488,22.7790368 C154.632539,19.5665722 155.221599,18.9121813 156.175316,18.9121813 C157.409537,18.9121813 157.521739,20.4886686 157.521739,22.7790368 L154.604488,22.7790368 Z M161,24.4150142 C161,19.388102 158.503506,17.1572238 156.063114,17.1572238 C154.211781,17.1572238 150.70547,18.703966 150.70547,24.6529745 C150.70547,31.7322946 155.586255,31.9405099 156.147265,31.9405099 C158.223001,31.9405099 159.793829,30.631728 160.691445,29.5311615 L160.803647,29.4121813 L160.298738,28.3116147 L160.074334,28.490085 C160.074334,28.490085 158.840112,29.4419263 157.54979,29.4419263 C155.165498,29.4419263 154.660589,27.6869688 154.632539,24.6529745 L161,24.6529745 L161,24.4150142 L161,24.4150142 Z M144.899018,21.1728045 L144.899018,28.0439093 C144.899018,28.4603399 143.720898,29.7393768 143.103787,29.7393768 C141.56101,29.7393768 141.224404,27.092068 141.224404,24.8611898 C141.224404,20.131728 142.178121,19.5070822 143.159888,19.5070822 C144.113604,19.4475921 144.814867,20.9645892 144.899018,21.1728045 M149.695652,30.3342776 C149.162693,30.3342776 148.769986,29.7096317 148.769986,29.174221 L148.769986,11.2677054 L148.517532,11.2677054 L143.019635,11.2677054 L143.019635,12.4872521 L143.8331,12.4872521 C144.169705,12.4872521 144.927069,12.8144476 144.927069,13.4390935 L144.927069,18.4065156 C144.42216,17.8711048 143.524544,17.1572238 142.178121,17.1572238 C140.214586,17.1572238 137.157083,19.2096317 137.157083,24.8016997 C137.157083,30.4235127 140.214586,31.9107649 141.841515,31.9107649 C143.356241,31.9107649 144.281907,31.315864 144.870968,30.6614731 L144.870968,31.4943343 L149.948107,31.4943343 L149.948107,30.3342776 L149.695652,30.3342776 Z M136.343619,30.2747875 C136.007013,30.2747875 135.389902,29.9773371 135.389902,29.3526912 L135.389902,17.6331445 L135.137447,17.6331445 L131.462833,17.6331445 L131.462833,29.3229462 C131.462833,29.888102 130.901823,30.3045326 130.396914,30.3045326 L130.172511,30.3045326 L130.172511,31.5240793 L136.596073,31.5240793 L136.596073,30.2747875 L136.343619,30.2747875 Z M126.357644,17.6628895 L126.357644,18.7634561 L126.582048,18.7634561 C126.862553,18.7634561 127.255259,18.8824363 127.395512,19.1203966 C127.451613,19.2096317 127.479663,19.3286119 127.479663,19.417847 C127.479663,19.5070822 127.479663,19.5665722 127.451613,19.6558074 C127.28331,20.3101983 126.245442,23.582153 125.740533,25.1288952 C125.347826,23.5524079 124.506311,20.072238 124.394109,19.5963173 C124.394109,19.5368272 124.366059,19.4773371 124.366059,19.417847 C124.366059,19.2988669 124.394109,19.1798867 124.478261,19.0609065 C124.618513,18.8824363 124.899018,18.7634561 125.291725,18.7634561 L125.54418,18.7634561 L125.54418,17.6331445 L119.373072,17.6331445 L119.373072,18.7932011 L119.597475,18.7932011 C119.84993,18.7932011 120.298738,18.8526912 120.41094,19.2096317 C120.41094,19.2096317 120.887798,20.8753541 120.943899,21.0240793 C120.887798,21.1728045 119.765778,24.325779 119.457223,25.2776204 C119.008415,23.9093484 117.942496,20.7266289 117.633941,19.8640227 C117.57784,19.7152975 117.521739,19.5070822 117.521739,19.3286119 C117.521739,19.2096317 117.57784,19.1203966 117.605891,19.0014164 C117.718093,18.8229462 117.970547,18.733711 118.223001,18.733711 L118.475456,18.733711 L118.475456,17.5736544 L118.223001,17.5736544 L112.612903,17.5736544 L112.612903,18.674221 L112.753156,18.733711 C112.893408,18.7932011 113.230014,18.9716714 113.370266,19.2096317 C113.510519,19.5368272 116.035063,26.8541076 117.690042,31.7025496 L117.746143,31.8512748 L119.092567,31.8512748 C119.092567,31.8512748 121.364656,25.1883853 121.757363,23.9985836 C122.093969,25.1883853 124.029453,31.8512748 124.029453,31.8512748 L125.319776,31.8512748 L129.218794,20.0127479 C129.527349,19.0906516 129.835905,18.703966 130.228612,18.703966 L130.481066,18.703966 L130.481066,17.6628895 L126.357644,17.6628895 Z M112.837307,30.2747875 C112.079944,30.2747875 111.939691,29.9475921 111.939691,29.4716714 L111.939691,21.5 C111.939691,19.417847 110.70547,17.2464589 108.40533,17.2464589 C106.834502,17.2464589 105.712482,17.8116147 104.870968,18.8824363 L104.870968,17.6331445 L99.7096774,17.6331445 L99.7096774,18.7932011 L100.270687,18.7932011 C100.298738,18.7932011 100.97195,18.9419263 100.97195,19.5665722 L100.97195,29.2634561 C100.97195,29.9475921 100.382889,30.3045326 99.8499299,30.3640227 L99.6255259,30.3640227 L99.6255259,31.4943343 L106.13324,31.4943343 L106.13324,30.3342776 L105.908836,30.3342776 C105.347826,30.3342776 104.927069,29.8583569 104.927069,29.233711 L104.927069,21.2620397 C104.927069,20.8456091 105.824684,19.5963173 106.750351,19.5963173 C107.535764,19.5963173 107.928471,20.1912181 107.928471,21.3810198 L107.928471,29.4716714 C107.928471,29.7988669 107.395512,30.2747875 107.002805,30.2747875 L106.750351,30.2747875 L106.750351,31.4645892 L113.061711,31.4645892 L113.061711,30.2450425 L112.837307,30.2450425 L112.837307,30.2747875 Z M94.772791,24.9504249 C94.772791,30.0963173 93.5666199,30.0963173 93.0617111,30.0963173 C92.3323983,30.0963173 91.2384292,30.0963173 91.2384292,24.8314448 C91.2384292,19.4773371 92.1640954,19.0311615 93.0056101,19.0311615 C93.8471248,19.0014164 94.772791,19.6855524 94.772791,24.9504249 M93.0336606,17.1869688 C90.200561,17.1869688 87.1430575,19.9830028 87.1430575,24.5042493 C87.1430575,30.3640227 91.0420757,31.8810198 93.0897616,31.8810198 C95.4179523,31.8810198 98.8401122,29.6501416 98.8401122,24.8909348 C98.8681627,20.5184136 96.371669,17.1869688 93.0336606,17.1869688 M86.2173913,30.2747875 C85.8527349,30.2747875 85.2636746,29.9773371 85.2636746,29.3526912 L85.2636746,17.6331445 L85.0112202,17.6331445 L81.3085554,17.6331445 L81.3085554,29.3229462 C81.3085554,29.888102 80.7475456,30.3045326 80.2426367,30.3045326 L80.0182328,30.3045326 L80.0182328,31.5240793 L86.4417952,31.5240793 L86.4417952,30.2747875 L86.2173913,30.2747875 Z M79.2889201,19.3286119 L79.2889201,17.6331445 L76.9326788,17.6331445 L76.9326788,12.7252125 L76.7082749,12.7252125 L75.9789621,12.7252125 L75.8667602,12.9036827 C75.0813464,14.2124646 73.5946704,16.6515581 71.85554,18.01983 L71.7713885,18.1090652 L71.7713885,19.3583569 L73.0897616,19.3583569 L73.0897616,28.6983003 C73.0897616,30.7507082 74.4922861,31.8512748 75.9228612,31.8512748 C77.1570827,31.8512748 77.9985975,31.6133144 78.8681627,30.3342776 L78.8962132,30.2747875 L78.8962132,29.0849858 L78.5596073,29.2634561 C78.2230014,29.4419263 77.7741935,29.4121813 77.4375877,29.203966 C77.1290323,28.9957507 76.9607293,28.6983003 76.9607293,28.3711048 L76.9607293,19.2988669 L79.2889201,19.2988669 L79.2889201,19.3286119 Z M64.5624123,29.3526912 C64.1697055,29.3526912 63.4684432,28.9957507 63.4684432,27.6572238 C63.4684432,26.3484419 64.5904628,25.0396601 66.0490884,24.5339943 L66.0490884,28.3116147 C65.684432,29.0254958 64.8990182,29.3526912 64.5624123,29.3526912 M70.6493689,29.5014164 C70.5652174,29.6203966 70.3969144,29.5906516 70.2847125,29.5311615 C70.088359,29.4716714 69.9200561,29.2932011 69.9200561,29.0849858 L69.9200561,21.0240793 C69.9200561,18.7634561 67.7882188,17.2464589 64.6465638,17.2464589 C61.8976157,17.2464589 60.4950912,18.3172805 59.8779804,18.9419263 L59.8218794,19.0014164 L59.8218794,23.1657224 L60.887798,23.1657224 L60.943899,22.9575071 C61.6732118,19.3583569 63.6086957,19.0014164 64.3941094,19.0311615 C65.0673212,19.0609065 66.0771388,19.7152975 66.0771388,20.5481586 L66.0771388,22.5410765 C61.5610098,23.8796034 59.345021,25.9022663 59.345021,28.7280453 C59.345021,30.6614731 60.6633941,31.9405099 62.598878,31.9405099 C63.8611501,31.9405099 65.0392707,31.4348442 66.1893408,30.4235127 C66.4417952,31.2563739 67.3394109,31.8810198 68.4333801,31.8810198 C69.4712482,31.8810198 70.368864,31.3456091 70.9859748,30.3937677 L71.0420757,30.3342776 L71.0420757,28.9660057 L70.6493689,29.5014164 Z M52.6409537,11.2677054 L52.6409537,12.5467422 L53.4824684,12.5467422 C53.9593268,12.5467422 54.6605891,13.111898 54.6605891,13.8852691 L54.6605891,22.7790368 C53.9032258,21.6487252 46.7784011,11.2379603 46.7784011,11.2379603 L46.6381487,11.2379603 L41.0841515,11.2379603 L41.0841515,12.398017 L41.5049088,12.398017 C41.6171108,12.5467422 42.7671809,13.9745042 42.8793829,14.0934844 L42.8793829,29.0552408 C42.8793829,30.1260623 41.6171108,30.2152975 41.2244039,30.2152975 L41,30.2152975 L41,31.4348442 L47.3955119,31.4348442 L47.3955119,30.1558074 L46.7503506,30.1558074 C46.0771388,30.1558074 45.3478261,29.4716714 45.3478261,29.0552408 L45.3478261,17.1274788 C46.1332398,18.2577904 55.7826087,32 55.7826087,32 L57.1009818,32 L57.1009818,13.8555241 C57.1009818,12.9334278 57.5778401,12.5169972 58.5596073,12.5169972 L58.8120617,12.5169972 L58.8120617,11.2379603 L52.6409537,11.2379603 L52.6409537,11.2677054 Z M83.2720898,11 C82.0378682,11 81.0280505,12.0708215 81.0280505,13.3796034 C81.0280505,14.6883853 82.0098177,15.7592068 83.2720898,15.7592068 C84.5063114,15.7592068 85.4880785,14.7181303 85.4880785,13.3796034 C85.4880785,12.0708215 84.5063114,11 83.2720898,11 M133.370266,11 C132.136045,11 131.126227,12.0708215 131.126227,13.3796034 C131.126227,14.6883853 132.136045,15.7592068 133.370266,15.7592068 C134.604488,15.7592068 135.614306,14.7181303 135.614306,13.3796034 C135.614306,12.0708215 134.604488,11 133.370266,11" id="Shape" fill="#FFFFFF"></path>
            <path d="M32.7403101,33.3490566 C33.5552326,33.3490566 34.370155,33.009434 34.9883721,32.4150943 C35.6346899,31.7924528 36,30.9433962 36,30.0943396 L36,22.2830189 C36,21.3490566 35.6627907,20.5566038 35.0164729,19.8773585 L30.6608527,15.490566 C30.4922481,15.3207547 30.379845,15.0943396 30.379845,14.8396226 L30.379845,10.0849057 C30.379845,9.26415094 30.0426357,8.5 29.4525194,7.90566038 C28.8624031,7.33962264 28.1036822,7 27.2887597,7 L23.8885659,7 C22.2306202,7 20.8536822,8.38679245 20.8536822,10.0849057 L20.8536822,10.3396226 C20.8536822,10.509434 20.7131783,10.6509434 20.5445736,10.6509434 L20.5445736,10.6509434 L20.0668605,10.6509434 C19.4767442,10.6509434 18.8866279,10.8773585 18.4089147,11.3018868 C18.127907,11.5283019 17.9312016,11.8113208 17.7906977,12.1226415 C17.4815891,12.0943396 17.1162791,12.0660377 16.8352713,12.0660377 C12.0300388,12.0660377 7,15.7735849 7,22.1415094 C7,27.5188679 11.4680233,29.8962264 11.7209302,30.0660377 C11.8895349,30.1792453 12.254845,30.4622642 12.254845,30.9433962 L12.254845,33.8867925 C12.254845,34.7358491 12.5920543,35.5283019 13.1821705,36.1226415 C13.7722868,36.6886792 14.5591085,37 15.374031,37 L27.373062,37 C28.1879845,37 28.9186047,36.745283 29.4525194,36.2641509 C30.0145349,35.7264151 30.3517442,34.9622642 30.3517442,34.1132075 L30.3517442,33.6320755 C30.3517442,33.4622642 30.4922481,33.3207547 30.6608527,33.3207547 L32.7403101,33.3207547 L32.7403101,33.3490566 Z" id="Path" fill="#FFFFFF"></path>
            <path d="M33.4381801,20.4550209 L28.904643,15.8797071 C28.6247951,15.5972803 28.4289015,15.2018828 28.4289015,14.8064854 L28.4289015,9.63807531 C28.4289015,8.73430962 27.673312,8 26.8057833,8 L23.5875317,8 C22.6920182,8 21.9923983,8.70606695 21.9923983,9.60983264 L21.9923983,11.1631799 C21.9923983,11.3608787 21.8524743,11.6715481 21.4606871,11.6715481 L19.7536145,11.6715481 C19.277873,11.6715481 18.7741467,12.0387029 18.7181771,12.5753138 C18.6901923,12.998954 18.5502683,13.3378661 17.8226636,13.1966527 C17.8226636,13.1966527 17.7946788,13.1966527 17.7946788,13.1966527 C17.766694,13.1966527 17.766694,13.1966527 17.7387092,13.1966527 C17.2349829,13.1119247 16.7312565,13.0554393 16.1995454,13.0554393 C11.6660083,13.0554393 8,16.7552301 8,21.3305439 C8,24.0983264 9.34327023,26.5271967 11.3861604,28.0523013 L11.3861604,28.0523013 C11.4980996,28.1370293 11.6380236,28.1935146 11.7779475,28.1935146 C12.0018259,28.1935146 12.2257043,28.0805439 12.3376435,27.8828452 L12.3376435,27.8828452 L16.9831197,20.8786611 C16.9831197,20.8786611 17.4588612,20.1443515 18.3543747,20.1443515 L23.7274557,20.1443515 C24.0073036,20.1443515 24.231182,19.91841 24.231182,19.6359833 C24.231182,19.5794979 24.231182,19.5512552 24.2031972,19.4947699 C23.6714861,17.207113 22.2162766,15.2583682 20.2573409,14.1286611 C20.0894321,14.0439331 19.9774929,13.874477 19.9774929,13.6485356 C19.9774929,13.3661088 20.2013713,13.1119247 20.5092041,13.1119247 L20.5092041,13.1119247 L22.2442614,13.1119247 C22.8879118,13.1119247 23.4196229,12.5753138 23.4196229,11.9257322 L23.4196229,9.92050209 C23.4196229,9.60983264 23.6714861,9.41213389 23.9233492,9.41213389 L26.4699657,9.41213389 C26.7218289,9.41213389 26.9736921,9.63807531 26.9736921,9.92050209 L26.9736921,21.0481172 C26.9736921,21.3023013 27.1695856,21.5564854 27.4774184,21.5564854 L32.0389402,21.5564854 C32.3747578,21.5564854 32.5426666,21.8389121 32.5426666,22.0648536 L32.5426666,29.4079498 C32.5426666,29.6621339 32.346773,29.916318 32.0109554,29.916318 L28.0091295,29.916318 C27.3374944,29.916318 26.8897377,30.4811715 26.8897377,31.0460251 L26.8897377,33.0230126 C26.8897377,33.333682 26.6378745,33.5313808 26.3860113,33.5313808 L21.9644135,33.5313808 L21.9644135,31.3284519 C21.9644135,30.9330544 21.6565807,30.5941423 21.2368088,30.5941423 C20.8450216,30.5941423 20.5092041,30.9048117 20.5092041,31.3284519 L20.5092041,33.5313808 L15.1081383,33.5313808 C14.8562752,33.5313808 14.604412,33.333682 14.604412,33.0230126 L14.604412,29.6903766 C14.604412,29.3797071 14.8562752,29.1820084 15.1081383,29.1820084 L21.348748,29.1820084 C21.6565807,29.1820084 21.9084439,28.8148536 21.9084439,28.8148536 L26.2181025,22.3472803 C26.4699657,21.9518828 26.1341482,21.5564854 25.8263154,21.5564854 L18.4942987,21.5564854 C18.2144507,21.5564854 18.0745268,21.7541841 17.9346028,21.9801255 L13.5409897,28.5889121 C13.5409897,28.5889121 13.1771874,29.0972803 13.1771874,29.7186192 L13.1771874,33.333682 C13.1771874,34.2656904 13.9327769,35 14.8842599,35 L27.1416008,35 C27.7012968,35 28.3169623,34.5763598 28.3169623,33.8138075 L28.3169623,31.8650628 C28.3169623,31.6391213 28.4848711,31.3566946 28.8206886,31.3566946 L32.1788642,31.3566946 C33.1023625,31.3566946 33.997876,30.5376569 33.997876,29.5774059 L33.997876,21.7824268 C34.0258608,21.2175732 33.7739976,20.7939331 33.4381801,20.4550209 M29.0725518,27.7698745 L29.0725518,26.2730126 C29.0725518,25.8776151 28.764719,25.5387029 28.3449471,25.5387029 C27.9531599,25.5387029 27.6173424,25.8493724 27.6173424,26.2730126 L27.6173424,27.7698745 C27.6173424,28.165272 27.9251751,28.5041841 28.3449471,28.5041841 C28.764719,28.5041841 29.0725518,28.165272 29.0725518,27.7698745" id="Shape" fill="#00428D"></path>
            <path d="M47.6180523,63.6185567 L44.5087886,63.6185567 C44.1413302,63.6185567 44,63.4261168 44,63.1237113 L44,51.8247423 C44,51.4948454 44.1413302,51.3298969 44.5087886,51.3298969 L47.8441805,51.3298969 C50.0771971,51.3298969 51.9992874,52.0446735 51.9992874,54.2714777 C51.9992874,55.7010309 51.2078385,56.5257732 49.907601,56.9656357 C51.4339667,57.3780069 52.47981,58.3402062 52.47981,60.0721649 C52.4515439,62.766323 50.4163895,63.6185567 47.6180523,63.6185567 M47.8724466,52.8969072 L45.9503563,52.8969072 L45.9503563,56.2783505 L47.1092637,56.2783505 C47.8441805,56.2783505 48.4095012,56.1958763 48.8617577,56.0309278 C49.4553444,55.838488 50.0771971,55.371134 50.0771971,54.5189003 C50.0489311,53.419244 49.2009501,52.8969072 47.8724466,52.8969072 M49.4836105,58.257732 C48.9465558,57.9553265 48.239905,57.8453608 47.4484561,57.8453608 L45.9220903,57.8453608 L45.9220903,61.9965636 L47.5897862,61.9965636 C49.087886,61.9965636 50.3881235,61.7216495 50.3881235,60.0171821 C50.4163895,59.467354 50.3033254,58.7525773 49.4836105,58.257732 M60.6204276,63.6185567 C60.95962,63.6185567 61.1009501,63.4536082 61.1009501,63.0962199 L61.1009501,55.1786942 C61.1009501,54.8487973 60.95962,54.6563574 60.5638955,54.6563574 L59.8289786,54.6563574 C59.4049881,54.6563574 59.291924,54.8487973 59.291924,55.1786942 L59.291924,59.7972509 C59.291924,60.4570447 59.2071259,60.7044674 58.8679335,61.0893471 C58.3308789,61.6941581 57.6807601,62.1890034 56.9175772,62.1890034 C56.1826603,62.1890034 55.928266,61.6666667 55.928266,60.814433 L55.928266,55.1786942 C55.928266,54.8487973 55.7869359,54.6563574 55.4477435,54.6563574 L54.6280285,54.6563574 C54.2888361,54.6563574 54.1192399,54.8213058 54.1192399,55.1512027 L54.1192399,61.2542955 C54.1192399,62.8213058 54.8541568,63.7835052 56.4935867,63.7835052 C57.7655582,63.7835052 58.7548694,63.0687285 59.4615202,62.2439863 L59.4615202,63.1512027 C59.4615202,63.4536082 59.5745843,63.6460481 59.9985748,63.6460481 L60.6204276,63.6460481 M64.6342043,53.0893471 C64.0406176,53.0893471 63.560095,52.6219931 63.560095,52.0446735 C63.560095,51.467354 64.0406176,51 64.6342043,51 C65.227791,51 65.7083135,51.467354 65.7083135,52.0446735 C65.7083135,52.6219931 65.227791,53.0893471 64.6342043,53.0893471 M65.0016627,63.6185567 L64.2667458,63.6185567 C63.8427553,63.6185567 63.7296912,63.4261168 63.7296912,63.0962199 L63.7296912,55.1786942 C63.7296912,54.8213058 63.8992874,54.6563574 64.2384798,54.6563574 L65.0299287,54.6563574 C65.4539192,54.6563574 65.5669834,54.8487973 65.5669834,55.1512027 L65.5669834,63.0962199 C65.5669834,63.4536082 65.4539192,63.6185567 65.0016627,63.6185567 M69.467696,63.6185567 C69.9199525,63.6185567 70.0330166,63.4261168 70.0330166,63.0962199 L70.0330166,51.5773196 C70.0330166,51.2749141 69.8916865,51.0824742 69.495962,51.0824742 L68.7045131,51.0824742 C68.3653207,51.0824742 68.1957245,51.2474227 68.1957245,51.604811 L68.1957245,63.1512027 C68.1957245,63.4810997 68.3370546,63.6735395 68.7327791,63.6735395 L69.467696,63.6735395 M79.1346793,63.6185567 L78.4845606,63.6185567 C78.0605701,63.6185567 77.9192399,63.4261168 77.9192399,63.0962199 L77.9192399,62.4639175 C77.4104513,63.1786942 76.6190024,63.7560137 75.460095,63.7560137 C72.887886,63.7560137 72.039905,61.3367698 72.039905,59.1649485 C72.039905,56.6357388 73.1705463,54.4914089 75.460095,54.4914089 C76.6472684,54.4914089 77.3821853,55.0962199 77.8061758,55.6460481 L77.8061758,51.5498282 C77.8061758,51.1924399 77.9475059,51.0274914 78.3714964,51.0274914 L79.0781473,51.0274914 C79.4738717,51.0274914 79.6152019,51.2199313 79.6152019,51.5498282 L79.6152019,63.0687285 C79.6434679,63.4536082 79.4738717,63.6185567 79.1346793,63.6185567 M75.7992874,56.0584192 C74.1598575,56.0584192 73.9337292,58.0103093 73.9337292,59.1924399 C73.9337292,60.6494845 74.3577197,62.2164948 75.7144893,62.2164948 C77.127791,62.2164948 77.8061758,60.8419244 77.8061758,59.2474227 C77.8061758,57.2405498 77.0147268,56.0584192 75.7992874,56.0584192 M83.1484561,53.0893471 C82.5548694,53.0893471 82.0743468,52.6219931 82.0743468,52.0446735 C82.0743468,51.467354 82.5548694,51 83.1484561,51 C83.7420428,51 84.2225653,51.467354 84.2225653,52.0446735 C84.2225653,52.6219931 83.7420428,53.0893471 83.1484561,53.0893471 M83.5159145,63.6185567 L82.8092637,63.6185567 C82.3852732,63.6185567 82.272209,63.4261168 82.272209,63.0962199 L82.272209,55.1786942 C82.272209,54.8213058 82.4418052,54.6563574 82.7809976,54.6563574 L83.5724466,54.6563574 C83.9964371,54.6563574 84.1095012,54.8487973 84.1095012,55.1512027 L84.1095012,63.0962199 C84.0812352,63.4536082 83.968171,63.6185567 83.5159145,63.6185567 M93.2111639,63.6185567 C93.5220903,63.6185567 93.6916865,63.4536082 93.6916865,63.1237113 L93.6916865,57.04811 C93.6916865,55.4810997 92.9850356,54.5189003 91.3456057,54.5189003 C90.0736342,54.5189003 89.084323,55.233677 88.3776722,56.0584192 L88.3776722,55.1512027 C88.3776722,54.8487973 88.236342,54.6563574 87.8406176,54.6563574 L87.1622328,54.6563574 C86.8230404,54.6563574 86.6534442,54.8213058 86.6534442,55.1786942 L86.6534442,63.1237113 C86.6534442,63.4536082 86.7947743,63.6460481 87.1904988,63.6460481 L87.8971496,63.6460481 C88.3494062,63.6460481 88.4624703,63.4536082 88.4624703,63.1237113 L88.4624703,58.4776632 C88.4624703,57.8178694 88.5472684,57.5704467 88.8864608,57.185567 C89.4235154,56.580756 90.0736342,56.0859107 90.8368171,56.0859107 C91.5434679,56.0859107 91.8261283,56.6082474 91.8261283,57.4604811 L91.8261283,63.0962199 C91.8261283,63.4261168 91.9674584,63.6185567 92.3066508,63.6185567 L93.2111639,63.6185567 M99.5427553,67 C98.1577197,67 97.0270784,66.6426117 96.4052257,66.3402062 C96.2638955,66.2852234 96.1508314,66.2027491 96.1508314,66.0378007 C96.1508314,65.9828179 96.1790974,65.9003436 96.2073634,65.8453608 L96.5748219,65.04811 C96.687886,64.8281787 96.8857482,64.7731959 97.1684086,64.9106529 C97.7337292,65.2130584 98.5251781,65.5154639 99.4862233,65.5154639 C100.871259,65.5154639 101.295249,64.7457045 101.295249,63.6460481 L101.295249,62.3264605 C100.899525,62.8487973 100.051544,63.5085911 99.0904988,63.5085911 C96.716152,63.5085911 95.6703088,61.4467354 95.6703088,58.9725086 C95.6703088,56.9106529 96.6313539,54.5463918 99.1470309,54.5463918 C100.249406,54.5463918 101.097387,55.233677 101.43658,55.838488 L101.43658,55.2611684 C101.43658,54.8762887 101.549644,54.6838488 101.973634,54.6838488 L102.652019,54.6838488 C102.991211,54.6838488 103.132542,54.8762887 103.132542,55.233677 L103.132542,63.5635739 C103.104276,65.652921 102.341093,67 99.5427553,67 M99.3448931,56.0584192 C98.1011876,56.0584192 97.535867,57.3230241 97.535867,58.9450172 C97.535867,60.95189 98.2142518,61.9415808 99.3448931,61.9415808 C100.560333,61.9415808 101.266983,60.5670103 101.266983,59.0549828 C101.266983,57.2405498 100.475534,56.0584192 99.3448931,56.0584192 M113.449644,63.8934708 C115.767458,63.8934708 117.435154,62.628866 117.435154,60.2371134 C117.435154,58.0378007 116.078385,57.2955326 114.184561,56.5257732 C112.26247,55.7560137 111.612352,55.3161512 111.612352,54.2439863 C111.612352,53.2817869 112.4038,52.7319588 113.562708,52.7319588 C114.523753,52.7319588 115.286936,53.0618557 116.106651,53.5017182 C116.332779,53.6116838 116.530641,53.556701 116.643705,53.3367698 L117.095962,52.4295533 C117.124228,52.347079 117.18076,52.2646048 117.18076,52.1821306 C117.18076,52.0996564 117.124228,51.9896907 116.954632,51.9347079 C116.106651,51.467354 115.145606,51.0549828 113.562708,51.0549828 C111.471021,51.0549828 109.718527,52.2371134 109.718527,54.4364261 C109.718527,56.4707904 110.962233,57.2955326 113.393112,58.2852234 C114.834679,58.862543 115.54133,59.3573883 115.54133,60.4570447 C115.54133,61.4742268 114.778147,62.1890034 113.393112,62.1890034 C112.375534,62.1890034 111.273159,61.556701 110.707838,61.2542955 C110.453444,61.1168385 110.255582,61.1168385 110.114252,61.3367698 L109.633729,62.2714777 C109.577197,62.3539519 109.548931,62.4639175 109.548931,62.5463918 C109.548931,62.6563574 109.661995,62.7388316 109.803325,62.8213058 C110.679572,63.3436426 111.923278,63.8934708 113.449644,63.8934708 M122.579572,63.7835052 C119.837767,63.7835052 118.735392,61.4467354 118.735392,59.137457 C118.735392,56.8556701 119.866033,54.5189003 122.579572,54.5189003 C125.37791,54.5189003 126.452019,56.9106529 126.452019,59.137457 C126.452019,61.3917526 125.37791,63.7835052 122.579572,63.7835052 M122.579572,56.0859107 C121.024941,56.0859107 120.657482,57.7353952 120.657482,59.1649485 C120.657482,60.5670103 121.053207,62.2164948 122.579572,62.2164948 C124.16247,62.2164948 124.529929,60.5670103 124.529929,59.1649485 C124.529929,57.7353952 124.16247,56.0859107 122.579572,56.0859107 M134.677435,63.0137457 C134.875297,62.9037801 134.931829,62.7938144 134.931829,62.7113402 C134.931829,62.5738832 134.903563,62.5189003 134.847031,62.4089347 L134.451306,61.6941581 C134.338242,61.5017182 134.14038,61.5017182 133.85772,61.6391753 C133.377197,61.8865979 132.670546,62.2164948 131.879097,62.2164948 C130.2962,62.2164948 129.787411,60.6219931 129.787411,59.1649485 C129.787411,57.7353952 130.239667,56.0859107 131.907363,56.0859107 C132.529216,56.0859107 133.122803,56.3608247 133.631591,56.6082474 C133.829454,56.6907216 134.055582,56.6907216 134.168646,56.4707904 L134.536105,55.8109966 C134.592637,55.7010309 134.620903,55.5635739 134.620903,55.4810997 C134.620903,55.3436426 134.536105,55.2611684 134.394774,55.1786942 C133.71639,54.7938144 132.755344,54.5189003 131.766033,54.5189003 C129.22209,54.5189003 127.865321,56.5257732 127.865321,59.0274914 C127.865321,62.4639175 129.702613,63.7560137 131.709501,63.7560137 C132.981473,63.7835052 133.99905,63.4261168 134.677435,63.0137457 M137.673634,53.0893471 C137.080048,53.0893471 136.599525,52.6219931 136.599525,52.0446735 C136.599525,51.467354 137.080048,51 137.673634,51 C138.267221,51 138.747743,51.467354 138.747743,52.0446735 C138.747743,52.6219931 138.267221,53.0893471 137.673634,53.0893471 M138.012827,63.6185567 L137.27791,63.6185567 C136.853919,63.6185567 136.740855,63.4261168 136.740855,63.0962199 L136.740855,55.1786942 C136.740855,54.8213058 136.910451,54.6563574 137.249644,54.6563574 L138.041093,54.6563574 C138.465083,54.6563574 138.578147,54.8487973 138.578147,55.1512027 L138.578147,63.0962199 C138.606413,63.4536082 138.465083,63.6185567 138.012827,63.6185567 M147.53848,59.5223368 L142.563658,59.5223368 L142.563658,59.6597938 C142.591924,60.7869416 142.987648,62.2714777 144.598812,62.2714777 C145.446793,62.2714777 146.18171,61.9415808 146.520903,61.7491409 C146.831829,61.6116838 147.057957,61.556701 147.199287,61.7766323 L147.595012,62.4914089 C147.651544,62.6013746 147.67981,62.7113402 147.67981,62.7938144 C147.67981,62.9037801 147.595012,62.9862543 147.425416,63.0962199 C146.747031,63.5085911 145.644656,63.838488 144.54228,63.838488 C141.630879,63.838488 140.613302,61.556701 140.613302,59.2749141 C140.613302,56.9656357 141.659145,54.5738832 144.457482,54.5738832 C146.860095,54.5738832 147.934204,56.4707904 147.934204,59.1099656 C147.990736,59.3298969 147.877672,59.5223368 147.53848,59.5223368 M144.457482,56.0034364 C143.270309,56.0034364 142.704988,56.9381443 142.62019,58.1752577 L146.096912,58.1752577 C146.068646,57.04811 145.672922,56.0034364 144.457482,56.0034364 M154.435392,63.5360825 C154.576722,63.4810997 154.66152,63.4261168 154.66152,63.3436426 C154.66152,63.2886598 154.633254,63.2061856 154.604988,63.0962199 L154.407126,62.2989691 C154.322328,62.0515464 154.209264,61.9965636 153.983135,62.0790378 C153.785273,62.161512 153.446081,62.2714777 153.135154,62.2714777 C152.485036,62.2714777 152.343705,61.8865979 152.343705,61.1168385 L152.343705,56.1683849 L153.813539,56.1683849 C154.0962,56.1683849 154.23753,56.0034364 154.23753,55.7560137 L154.23753,55.0412371 C154.23753,54.7938144 154.067933,54.628866 153.813539,54.628866 L152.343705,54.628866 L152.343705,52.2920962 C152.343705,51.9896907 152.230641,51.7972509 151.806651,51.7972509 L151.015202,51.7972509 C150.67601,51.7972509 150.506413,51.9621993 150.506413,52.3195876 L150.506413,54.6563574 L149.517102,54.6563574 C149.262708,54.6563574 149.093112,54.7938144 149.093112,55.0687285 L149.093112,55.7835052 C149.093112,56.0309278 149.234442,56.1958763 149.517102,56.1958763 L150.506413,56.1958763 L150.506413,61.3367698 C150.506413,63.1512027 151.354394,63.7835052 152.711164,63.7835052 C153.304751,63.7835052 154.039667,63.6735395 154.435392,63.5360825 M162.915202,55.2061856 C162.943468,55.0962199 163,54.9312715 163,54.8487973 C163,54.7388316 162.886936,54.6563574 162.689074,54.6563574 L161.614964,54.6563574 C161.36057,54.6563574 161.247506,54.766323 161.162708,55.0137457 L159.155819,61.2268041 L157.148931,55.0137457 C157.064133,54.766323 156.951069,54.6563574 156.696675,54.6563574 L155.509501,54.6563574 C155.339905,54.6563574 155.198575,54.7388316 155.198575,54.8487973 C155.198575,54.9312715 155.226841,55.0687285 155.255107,55.1512027 L158.194774,63.6185567 L158.166508,63.7010309 C157.79905,64.7182131 157.51639,65.4879725 156.753207,65.4879725 C156.470546,65.4879725 156.131354,65.4054983 155.905226,65.3505155 C155.763895,65.3230241 155.650831,65.3780069 155.594299,65.5154639 L155.339905,66.3402062 C155.311639,66.395189 155.283373,66.5051546 155.311639,66.5876289 C155.311639,66.6975945 155.368171,66.7525773 155.509501,66.7800687 C155.735629,66.862543 156.187886,66.9725086 156.668409,66.9725086 C158.590499,66.9725086 159.240618,65.8453608 159.890736,63.9209622 L162.915202,55.2061856" id="Shape" fill="#00428D"></path>
        </g>
    </g>
</svg>